<?xml version="1.0" encoding="utf-8"?>
<!-- Generator: Adobe Illustrator 22.0.0, SVG Export Plug-In . SVG Version: 6.00 Build 0)  -->
<svg version="1.1" id="Capa_1" xmlns="http://www.w3.org/2000/svg" xmlns:xlink="http://www.w3.org/1999/xlink" x="0px" y="0px"
	 viewBox="0 0 746 696" style="enable-background:new 0 0 746 696;" xml:space="preserve">
<style type="text/css">
	.st0{fill:#FFFFFF;}
</style>
<ellipse id="fondo_logo" cx="372.5" cy="348" rx="357.5" ry="336"/>
<g id="logo">
	<g>
		<g>
			<path class="st0" d="M596,232l-60-65c-10-11-15-18-28-18h-41v-16c-0.1-11.2-4.7-18.5-17-19l-236,2c-10,0-14.2,11.8-15,24l-74,11
				l110,18l-108,16l112,18l-109,15l75,17l2,37l395-1l1-22C603.9,242.1,601.3,236.5,596,232z M488,236l3-59l16,1l56,58H488z"/>
		</g>
	</g>
	<path class="st0" d="M208,280l2,45c1,12,7,19,19,19h27c5.6-28.1,21-44,50-44c29.3,1,44,19,49,44h101c3-21,20.5-44.4,52-45
		c28.1-0.1,44,20,49,44h24c10,0,16.2-9.1,17-20l3-45L208,280z"/>
	<g>
		<g>
			<path class="st0" d="M307.5,308.4c-21.9,0-39.6,17.7-39.6,39.6c0,21.9,17.7,39.6,39.6,39.6s39.6-17.7,39.6-39.6
				C347.1,326.1,329.4,308.4,307.5,308.4z M307.5,363.6c-8.6,0-15.6-7-15.6-15.6c0-8.6,7-15.6,15.6-15.6s15.6,7,15.6,15.6
				C323.1,356.6,316.1,363.6,307.5,363.6z"/>
		</g>
	</g>
	<g>
		<g>
			<path class="st0" d="M507.5,307.4c-21.9,0-39.6,17.7-39.6,39.6c0,21.9,17.7,39.6,39.6,39.6s39.6-17.7,39.6-39.6
				C547.1,325.1,529.4,307.4,507.5,307.4z M507.5,362.6c-8.6,0-15.6-7-15.6-15.6c0-8.6,7-15.6,15.6-15.6s15.6,7,15.6,15.6
				C523.1,355.6,516.1,362.6,507.5,362.6z"/>
		</g>
	</g>
</g>
<polygon id="fondo_distri" class="st0" points="76,402 89,532 402,534 402,403 "/>
<g id="distri">
	<polygon points="168,501 166,430 177,431 181,502 	"/>
	<path d="M193,496c0,0,4,6,19,7s20.7-9.1,22-13c2-6,2-14-4-19s-20.9-9.9-26-15c-4-4-10-14,1-19c11.1-5.1,25,6,25,6l4-3c0,0-6-7-13-9
		s-19,0-24,4s-7.9,9.1-7,16c1,8,14,18,23,22s15,8,13,15s-8.9,9-14,9c-6,0-16-3-19-5S193,496,193,496z"/>
	<polygon points="255,502 253,434 240,434 240,428 295,429 295,435 280,435 283,502 	"/>
	<g>
		<g>
			<path d="M320,456c4,0,11-1,15-3c15.6-7.8,4-20-3-21s-24-1-24-1v71h5v-44l37,45h8C358,503,318.6,456,320,456z M313,436
				c0,0,9,0,12,0s13,1,13,8c0,5-8,7-12,7c-3.2,0.3-13,0-13,0V436z"/>
		</g>
	</g>
	<polygon points="365,502 368,431 380,432 378,503 	"/>
	<g>
		<g>
			<path d="M137,435c0,0-6-4-18-4c-7,0-16,0-16,0l8,71c0,0,14,0,18,0c6,0,26.2-3,26-28C154.8,449.2,142,438,137,435z M125,481l-2-28
				c0,0,14-3,14,12S125,481,125,481z"/>
		</g>
	</g>
</g>
<g id="lugano">
	<path class="st0" d="M415,442l2,60c-0.1,2.6,1.3,4,4,4l26-1c2,0,3-5,1-5c-2.8-0.8-6.5-0.6-19,0l2-51c-0.2-4.4-4.6-8.5-12-9
		C416.9,440,415.1,440.3,415,442z"/>
	<path class="st0" d="M451,457v34c-0.1,5.9,2.1,8.6,6,9c5,0,8-1,10-3l9-9v9c0.1,4.6,2.3,5.3,5,5c6.2-0.4,7.8-4.2,8-9l3-37
		c0.4-4.4-3.5-5-8-5c-3.3-0.2-6.4,0-7,4l-2,24c-0.3,5.7-4.8,8.3-9,9l1-30c-1.1-7.4-4.3-10.2-9-10C452.9,447.7,450.6,450.8,451,457z"
		/>
	<path class="st0" d="M510,457l-1,30c-0.4,8.8,6.1,8.8,12,9l1-15l-9-1v-5l19,1v5h-5l-1,18c-1.1,5.3-5.9,7.7-15,7
		c-9.3-0.3-15-12-15-16s1-33,1-33c1.1-12.5,7.6-15.8,16-16c10.7,0.3,11.6,9.9,12,20h-7c0.5-8.9-1.8-11-5-11
		C510.7,450.2,510.1,453.2,510,457z"/>
	<g>
		<g>
			<path class="st0" d="M569,494l-12-39c-3-9-13-10-15,1l-7,43c-2,8,13,10,13,0l2-18h6l5,15C564,504,571,500,569,494z M551,476l1-7
				l3,7H551z"/>
		</g>
	</g>
	<path class="st0" d="M576,449l-1,39c-0.2,9.5,2,13.6,6,14c5.4-0.2,9-2,9-13l1-15l7,14c5,9,12,10,13,2l3-34c1-13-13-10-14-2l-1,21
		l-9-24C587,441,576,443,576,449z"/>
	<g>
		<g>
			<path class="st0" d="M637,449c-10.5,0-19,11-19,24.5c0,13.5,8.5,24.5,19,24.5s19-11,19-24.5C656,460,647.5,449,637,449z
				 M639.5,487c-4.7,0-8.5-6.5-8.5-14.5s3.8-14.5,8.5-14.5s8.5,6.5,8.5,14.5S644.2,487,639.5,487z"/>
		</g>
	</g>
</g>
</svg>
