<svg width="87" height="50" viewBox="0 0 87 50" fill="none" xmlns="http://www.w3.org/2000/svg">
<path d="M85.386 21.3918L74.5088 9.60819C72.6959 7.61404 71.7895 6.34503 69.4328 6.34503H62V3.44444C61.9819 1.41404 61.148 0.0906433 58.9181 0L16.1345 0.362573C14.3216 0.362573 13.5602 2.50175 13.4152 4.71345L0 6.7076L19.9415 9.97076L0.362573 12.8713L20.6667 16.1345L0.906433 18.8538L14.5029 21.9357L14.8655 28.6433L86.4737 28.462L86.655 24.4737C86.8181 23.2228 86.3468 22.2076 85.386 21.3918ZM65.807 22.117L66.3509 11.4211L69.2515 11.6023L79.4035 22.117H65.807Z" fill="white"/>
<path d="M15.0468 30.0936L15.4094 38.2515C15.5906 40.4269 16.6784 41.6959 18.8538 41.6959H23.7485C24.7637 36.6018 27.5556 33.7193 32.8129 33.7193C38.1246 33.9006 40.7895 37.1638 41.6959 41.6959H60.0059C60.5497 37.8889 63.7222 33.6468 69.4328 33.538C74.5269 33.5199 77.4094 37.1638 78.3158 41.5146H82.6667C84.4795 41.5146 85.6035 39.8649 85.7486 37.8889L86.2924 29.731L15.0468 30.0936Z" fill="white"/>
<path d="M33.0848 35.2421C29.1146 35.2421 25.9059 38.4509 25.9059 42.421C25.9059 46.3912 29.1146 49.6 33.0848 49.6C37.055 49.6 40.2638 46.3912 40.2638 42.421C40.2638 38.4509 37.055 35.2421 33.0848 35.2421ZM33.0848 45.2491C31.5257 45.2491 30.2567 43.9801 30.2567 42.421C30.2567 40.862 31.5257 39.593 33.0848 39.593C34.6439 39.593 35.9129 40.862 35.9129 42.421C35.9129 43.9801 34.6439 45.2491 33.0848 45.2491Z" fill="white"/>
<path d="M69.3421 35.0608C65.372 35.0608 62.1632 38.2696 62.1632 42.2398C62.1632 46.2099 65.372 49.4187 69.3421 49.4187C73.3123 49.4187 76.5211 46.2099 76.5211 42.2398C76.5211 38.2696 73.3123 35.0608 69.3421 35.0608ZM69.3421 45.0678C67.7831 45.0678 66.5141 43.7988 66.5141 42.2398C66.5141 40.6807 67.7831 39.4117 69.3421 39.4117C70.9012 39.4117 72.1702 40.6807 72.1702 42.2398C72.1702 43.7988 70.9012 45.0678 69.3421 45.0678Z" fill="white"/>
</svg>
