<svg width="220" height="41" viewBox="0 0 220 41" fill="none" xmlns="http://www.w3.org/2000/svg">
<path d="M0 0L4.02761 40.3788L101 41V0.310606L0 0Z" fill="white"/>
<path d="M23.5757 30.75L22.9545 8.69696L26.3712 9.00757L27.6136 31.0606L23.5757 30.75Z" fill="black"/>
<path d="M31.3409 29.197C31.3409 29.197 32.5833 31.0606 37.2424 31.3712C41.9015 31.6818 43.672 28.5447 44.0758 27.3333C44.697 25.4697 44.697 22.9848 42.8333 21.4318C40.9697 19.8788 36.3417 18.3568 34.7576 16.7727C33.5152 15.5303 31.6515 12.4242 35.0682 10.8712C38.5159 9.28711 42.8333 12.7348 42.8333 12.7348L44.0758 11.803C44.0758 11.803 42.2121 9.62877 40.0379 9.00756C37.8636 8.38635 34.1364 9.00756 32.5833 10.25C31.0303 11.4924 30.1295 13.0765 30.4091 15.2197C30.7197 17.7045 34.7576 20.8106 37.553 22.053C40.3485 23.2954 42.2121 24.5379 41.5909 26.7121C40.9697 28.8863 38.8265 29.5076 37.2424 29.5076C35.3788 29.5076 32.2727 28.5757 31.3409 27.9545C30.4091 27.3333 31.3409 29.197 31.3409 29.197Z" fill="black"/>
<path d="M50.5985 31.0606L49.9773 9.93938H45.9394V8.07574L63.0227 8.38635V10.25H58.3636L59.2955 31.0606H50.5985Z" fill="black"/>
<path d="M70.7879 16.7727C72.0303 16.7727 74.2045 16.4621 75.447 15.8409C80.2924 13.4182 76.6894 9.62878 74.5152 9.31817C72.3409 9.00757 67.0606 9.00757 67.0606 9.00757V31.0606H68.6136V17.3939L80.1061 31.3712H82.5909C82.5909 31.3712 70.353 16.7727 70.7879 16.7727ZM68.6136 10.5606C68.6136 10.5606 71.4091 10.5606 72.3409 10.5606C73.2727 10.5606 76.3788 10.8712 76.3788 13.0454C76.3788 14.5985 73.8939 15.2197 72.6515 15.2197C71.6576 15.3129 68.6136 15.2197 68.6136 15.2197V10.5606Z" fill="black"/>
<path d="M84.7651 31.0606L85.697 9.00757L89.4242 9.31817L88.803 31.3712L84.7651 31.0606Z" fill="black"/>
<path d="M13.947 10.25C13.947 10.25 12.0833 9.00757 8.35605 9.00757C6.18181 9.00757 3.38635 9.00757 3.38635 9.00757L5.8712 31.0606C5.8712 31.0606 10.2197 31.0606 11.4621 31.0606C13.3257 31.0606 19.6 30.1288 19.5379 22.3636C19.4757 14.6606 15.5 11.1818 13.947 10.25ZM10.2197 24.5379L9.59847 15.8409C9.59847 15.8409 13.947 14.9091 13.947 19.5682C13.947 24.2273 10.2197 24.5379 10.2197 24.5379Z" fill="black"/>
<path d="M110 5.91105L110.911 33.2426C110.865 34.427 111.503 35.0647 112.733 35.0647L124.577 34.6092C125.488 34.6092 125.943 32.3316 125.032 32.3316C123.757 31.9671 122.071 32.0582 116.377 32.3316L117.288 9.09973C117.197 7.09542 115.193 5.22776 111.822 5C110.865 5 110.046 5.13666 110 5.91105Z" fill="white"/>
<path d="M126.399 12.7439V28.2318C126.353 30.9194 127.356 32.1493 129.132 32.3315C131.41 32.3315 132.776 31.876 133.687 30.965L137.787 26.8652V30.965C137.833 33.0604 138.835 33.3793 140.065 33.2426C142.889 33.0604 143.618 31.3294 143.709 29.1429L145.076 12.2884C145.258 10.2841 143.481 10.0108 141.431 10.0108C139.928 9.91967 138.516 10.0108 138.243 11.8329L137.332 22.7655C137.195 25.362 135.145 26.5464 133.232 26.8652L133.687 13.1995C133.186 9.82857 131.729 8.5531 129.588 8.6442C127.264 8.50754 126.217 9.91967 126.399 12.7439Z" fill="white"/>
<path d="M153.275 12.7439L152.819 26.4097C152.637 30.4183 155.598 30.4183 158.286 30.5094L158.741 23.6766L154.642 23.221V20.9434L163.297 21.3989V23.6766H161.019L160.563 31.876C160.062 34.2903 157.876 35.3836 153.73 35.0647C149.494 34.928 146.898 29.5984 146.898 27.7763C146.898 25.9542 147.353 12.7439 147.353 12.7439C147.854 7.04986 150.815 5.54663 154.642 5.45552C159.516 5.59218 159.926 9.96523 160.108 14.566H156.919C157.147 10.5119 156.099 9.55525 154.642 9.55525C153.594 9.64636 153.32 11.0129 153.275 12.7439Z" fill="white"/>
<path d="M180.151 29.5984L174.685 11.8329C173.318 7.73316 168.763 7.27763 167.852 12.2884L164.663 31.876C163.752 35.5202 170.585 36.4313 170.585 31.876L171.496 23.6766H174.229L176.507 30.5094C177.873 34.1537 181.062 32.3316 180.151 29.5984ZM171.952 21.3989L172.407 18.2103L173.774 21.3989H171.952Z" fill="white"/>
<path d="M183.34 9.09974L182.884 26.8652C182.793 31.1927 183.795 33.0604 185.617 33.2426C188.077 33.1515 189.717 32.3316 189.717 27.3208L190.173 20.4879L193.361 26.8652C195.639 30.965 198.828 31.4205 199.283 27.7763L200.65 12.2884C201.105 6.36659 194.728 7.73316 194.272 11.3774L193.817 20.9434L189.717 10.0108C188.35 5.45554 183.34 6.36659 183.34 9.09974Z" fill="white"/>
<path d="M211.127 9.09973C206.344 9.09973 202.472 14.1105 202.472 20.2601C202.472 26.4097 206.344 31.4205 211.127 31.4205C215.91 31.4205 219.782 26.4097 219.782 20.2601C219.782 14.1105 215.91 9.09973 211.127 9.09973ZM212.266 26.4097C210.125 26.4097 208.394 23.4488 208.394 19.8046C208.394 16.1604 210.125 13.1995 212.266 13.1995C214.407 13.1995 216.138 16.1604 216.138 19.8046C216.138 23.4488 214.407 26.4097 212.266 26.4097Z" fill="white"/>
</svg>
