<?xml version="1.0" encoding="utf-8"?>
<!-- Generator: Adobe Illustrator 22.0.0, SVG Export Plug-In . SVG Version: 6.00 Build 0)  -->
<svg version="1.1" id="Capa_1" xmlns="http://www.w3.org/2000/svg" xmlns:xlink="http://www.w3.org/1999/xlink" x="0px" y="0px"
	 viewBox="0 0 599.5 150.5" style="enable-background:new 0 0 599.5 150.5;" xml:space="preserve">
<style type="text/css">
	.st0{fill:#FFFFFF;}
</style>
<polygon id="fondo_distri" class="st0" points="10.5,9.5 23.5,139.5 336.5,141.5 336.5,10.5 "/>
<g id="distri">
	<polygon points="102.5,108.5 100.5,37.5 111.5,38.5 115.5,109.5 	"/>
	<path d="M127.5,103.5c0,0,4,6,19,7s20.7-9.1,22-13c2-6,2-14-4-19s-20.9-9.9-26-15c-4-4-10-14,1-19c11.1-5.1,25,6,25,6l4-3
		c0,0-6-7-13-9s-19,0-24,4c-5,4-7.9,9.1-7,16c1,8,14,18,23,22s15,8,13,15s-8.9,9-14,9c-6,0-16-3-19-5
		C124.5,97.5,127.5,103.5,127.5,103.5z"/>
	<polygon points="189.5,109.5 187.5,41.5 174.5,41.5 174.5,35.5 229.5,36.5 229.5,42.5 214.5,42.5 217.5,109.5 	"/>
	<g>
		<g>
			<path d="M254.5,63.5c4,0,11-1,15-3c15.6-7.8,4-20-3-21s-24-1-24-1v71h5v-44l37,45h8C292.5,110.5,253.1,63.5,254.5,63.5z
				 M247.5,43.5c0,0,9,0,12,0s13,1,13,8c0,5-8,7-12,7c-3.2,0.3-13,0-13,0V43.5z"/>
		</g>
	</g>
	<polygon points="299.5,109.5 302.5,38.5 314.5,39.5 312.5,110.5 	"/>
	<g>
		<g>
			<path d="M71.5,42.5c0,0-6-4-18-4c-7,0-16,0-16,0l8,71c0,0,14,0,18,0c6,0,26.2-3,26-28C89.2,56.7,76.5,45.5,71.5,42.5z M59.5,88.5
				l-2-28c0,0,14-3,14,12S59.5,88.5,59.5,88.5z"/>
		</g>
	</g>
</g>
<g id="lugano">
	<path class="st0" d="M349.5,49.5l2,60c-0.1,2.6,1.3,4,4,4l26-1c2,0,3-5,1-5c-2.8-0.8-6.5-0.6-19,0l2-51c-0.2-4.4-4.6-8.5-12-9
		C351.4,47.5,349.6,47.8,349.5,49.5z"/>
	<path class="st0" d="M385.5,64.5v34c-0.1,5.9,2.1,8.6,6,9c5,0,8-1,10-3l9-9v9c0.1,4.6,2.3,5.3,5,5c6.2-0.4,7.8-4.2,8-9l3-37
		c0.4-4.4-3.5-5-8-5c-3.3-0.2-6.4,0-7,4l-2,24c-0.3,5.7-4.8,8.3-9,9l1-30c-1.1-7.4-4.3-10.2-9-10C387.4,55.2,385.1,58.3,385.5,64.5z
		"/>
	<path class="st0" d="M444.5,64.5l-1,30c-0.4,8.8,6.1,8.8,12,9l1-15l-9-1v-5l19,1v5h-5l-1,18c-1.1,5.3-5.9,7.7-15,7
		c-9.3-0.3-15-12-15-16s1-33,1-33c1.1-12.5,7.6-15.8,16-16c10.7,0.3,11.6,9.9,12,20h-7c0.5-8.9-1.8-11-5-11
		C445.2,57.7,444.6,60.7,444.5,64.5z"/>
	<g>
		<g>
			<path class="st0" d="M503.5,101.5l-12-39c-3-9-13-10-15,1l-7,43c-2,8,13,10,13,0l2-18h6l5,15
				C498.5,111.5,505.5,107.5,503.5,101.5z M485.5,83.5l1-7l3,7H485.5z"/>
		</g>
	</g>
	<path class="st0" d="M510.5,56.5l-1,39c-0.2,9.5,2,13.6,6,14c5.4-0.2,9-2,9-13l1-15l7,14c5,9,12,10,13,2l3-34c1-13-13-10-14-2
		l-1,21l-9-24C521.5,48.5,510.5,50.5,510.5,56.5z"/>
	<g>
		<g>
			<path class="st0" d="M571.5,56.5c-10.5,0-19,11-19,24.5c0,13.5,8.5,24.5,19,24.5s19-11,19-24.5C590.5,67.5,582,56.5,571.5,56.5z
				 M574,94.5c-4.7,0-8.5-6.5-8.5-14.5s3.8-14.5,8.5-14.5s8.5,6.5,8.5,14.5S578.7,94.5,574,94.5z"/>
		</g>
	</g>
</g>
</svg>
