<svg id="Capa_1" data-name="Capa 1" xmlns="http://www.w3.org/2000/svg" viewBox="0 0 300 279.89"><defs><style>.cls-1{fill:#fff;}</style></defs><title>Mesa de trabajo 1</title><ellipse id="fondo_logo" data-name="fondo logo" cx="149.5" cy="139.95" rx="136.19" ry="128"/><g id="logo"><path class="cls-1" d="M234.64,95.76,211.79,71c-3.81-4.19-5.72-6.85-10.67-6.85H185.5V58c0-4.27-1.8-7-6.48-7.24l-89.9.77c-3.81,0-5.39,4.5-5.72,9.14L55.21,64.9l41.91,6.86L56,77.85l42.66,6.86L57.12,90.42,85.69,96.9,86.45,111l150.48-.38.38-8.38A6.89,6.89,0,0,0,234.64,95.76ZM193.5,97.28l1.14-22.48,6.1.38,21.33,22.1Z"/><path class="cls-1" d="M86.83,114l.77,17.14c.38,4.58,2.66,7.24,7.23,7.24h10.29c2.12-10.71,8-16.76,19-16.76,11.17.37,16.76,7.24,18.66,16.76h38.48a20,20,0,0,1,19.81-17.14c10.69,0,16.76,7.62,18.67,16.76h9.14c3.81,0,6.16-3.46,6.47-7.62l1.15-17.14Z"/><path class="cls-1" d="M124.74,124.86A15.09,15.09,0,1,0,139.82,140,15.1,15.1,0,0,0,124.74,124.86Zm0,21a5.93,5.93,0,1,1,5.92-5.92A5.93,5.93,0,0,1,124.74,145.87Z"/><path class="cls-1" d="M200.93,124.48A15.09,15.09,0,1,0,216,139.57,15.09,15.09,0,0,0,200.93,124.48Zm0,21a5.93,5.93,0,1,1,5.92-5.92A5.93,5.93,0,0,1,200.93,145.49Z"/></g><polygon id="fondo_distri" data-name="fondo distri" class="cls-1" points="36.55 160.52 41.5 210.04 160.74 210.8 160.74 160.9 36.55 160.52"/><g id="distri"><polygon points="71.59 198.23 70.83 171.18 75.02 171.56 76.55 198.61 71.59 198.23"/><path d="M81.12,196.33s1.52,2.28,7.24,2.66,7.88-3.46,8.38-5c.76-2.28.76-5.33-1.53-7.24s-8-3.77-9.9-5.71c-1.52-1.52-3.81-5.33.38-7.24s9.52,2.29,9.52,2.29L96.74,175a12.36,12.36,0,0,0-4.95-3.42c-2.67-.77-7.24,0-9.15,1.52A6.37,6.37,0,0,0,80,179.18c.38,3,5.33,6.86,8.76,8.39s5.71,3,5,5.71-3.39,3.43-5.33,3.43a18.05,18.05,0,0,1-7.24-1.91C80,194,81.12,196.33,81.12,196.33Z"/><polygon points="104.74 198.61 103.98 172.71 99.02 172.71 99.02 170.42 119.98 170.8 119.98 173.09 114.26 173.09 115.41 198.61 104.74 198.61"/><path d="M129.5,181.09a15.3,15.3,0,0,0,5.71-1.14c5.95-3,1.53-7.62-1.14-8s-9.14-.38-9.14-.38v27h1.9V181.85L140.93,199h3S129,181.09,129.5,181.09Zm-2.67-7.62h4.57c1.15,0,5,.38,5,3.05,0,1.9-3.05,2.66-4.57,2.66-1.24.11-5,0-5,0Z"/><polygon points="146.64 198.61 147.79 171.56 152.36 171.95 151.59 198.99 146.64 198.61"/><path d="M59.79,173.09s-2.29-1.52-6.86-1.52h-6.1l3.05,27h6.86c2.28,0,10-1.13,9.9-10.66S61.69,174.23,59.79,173.09Zm-4.58,17.52L54.45,180s5.34-1.15,5.34,4.57S55.21,190.61,55.21,190.61Z"/></g><g id="lugano"><path class="cls-1" d="M165.69,175.76l.76,22.85c0,1,.51,1.51,1.53,1.53l9.9-.38c.76,0,1.14-1.91.38-1.91-1.07-.32-2.46-.22-7.24,0l.77-19.43c-.1-1.66-1.76-3.25-4.58-3.43C166.42,175,165.72,175.11,165.69,175.76Z"/><path class="cls-1" d="M179.4,181.47v12.95c0,2.27.81,3.29,2.29,3.43,1.91,0,3.05-.38,3.81-1.14l3.43-3.43v3.43c0,1.76.87,2,1.9,1.9,2.37-.14,3-1.59,3-3.43L195,181.09c.15-1.68-1.33-1.89-3-1.91-1.27-.06-2.45,0-2.67,1.53l-.76,9.14c-.1,2.16-1.82,3.15-3.43,3.43l.38-11.43c-.41-2.82-1.65-3.88-3.43-3.81C180.13,177.93,179.27,179.1,179.4,181.47Z"/><path class="cls-1" d="M201.88,181.47l-.38,11.43c-.17,3.35,2.32,3.35,4.57,3.43l.38-5.72-3.43-.38v-1.9l7.24.38v1.9h-1.9l-.38,6.86c-.42,2-2.25,2.95-5.72,2.67-3.54-.12-5.71-4.57-5.71-6.1s.38-12.57.38-12.57c.43-4.76,2.91-6,6.09-6.1,4.08.12,4.41,3.79,4.58,7.62h-2.67c.19-3.4-.7-4.18-1.91-4.19C202.16,178.89,201.94,180,201.88,181.47Z"/><path class="cls-1" d="M224.36,195.57l-4.57-14.86c-1.15-3.43-5-3.81-5.72.38l-2.67,16.38c-.76,3.05,5,3.81,5,0l.76-6.86h2.28l1.91,5.72C222.45,199.37,225.12,197.85,224.36,195.57Zm-6.86-6.86.38-2.67,1.14,2.67Z"/><path class="cls-1" d="M227,178.42l-.38,14.86c-.08,3.61.77,5.18,2.29,5.33,2.06-.07,3.43-.76,3.43-5l.38-5.71,2.66,5.33c1.91,3.43,4.58,3.81,5,.76l1.14-12.95c.38-5-4.95-3.81-5.33-.76l-.38,8-3.43-9.15C231.21,175.37,227,176.14,227,178.42Z"/><path class="cls-1" d="M250.26,178.42c-4,0-7.24,4.18-7.24,9.34s3.24,9.33,7.24,9.33,7.24-4.18,7.24-9.33S254.26,178.42,250.26,178.42Zm1,14.48c-1.78,0-3.23-2.47-3.23-5.53s1.45-5.52,3.23-5.52,3.24,2.47,3.24,5.52S253,192.9,251.21,192.9Z"/></g></svg>